/* XPM */
static char *magick[] = {
/* columns rows colors chars-per-pixel */
"108 108 17 1",
"  c #150254",
". c #1a0a59",
"X c #1f1562",
"o c #3b286e",
"O c #7b083f",
"+ c #0c6aad",
"@ c #56518b",
"# c #6b75a8",
"$ c #058dcc",
"% c #00a2df",
"& c #b20931",
"* c #ca0022",
"= c #8ea7d1",
"- c #b2adc7",
"; c #eae8ef",
": c Gray100",
"> c None",
/* pixels */
">>>>>>>>>>>>>>>>>>>>>>>>>>>>>>>>>>>>>>>>>>;;;--#@oXX....oo@##-;;;;>>>>>>>>>>>>>>>>>>>>>>>>>>>>>>>>>>>>>>>>>>",
">>>>>>>>>>>>>>>>>>>>>>>>>>>>>>>>>>>>>>>>;-=#ooX. X....... X .oo@#-;>>>>>>>>>>>>>>>>>>>>>>>>>>>>>>>>>>>>>>>>>",
">>>>>>>>>>>>>>>>>>>>>>>>>>>>>>>>>>>>;-#@..    ...........X..... ...o#-;>>>>>>>>>>>>>>>>>>>>>>>>>>>>>>>>>>>>>",
">>>>>>>>>>>>>>>>>>>>>>>>>>>>>>>>>;;#oXX  ..        .... .   .....  .  o#-;>>>>>>>>>>>>>>>>>>>>>>>>>>>>>>>>>>",
">>>>>>>>>>>>>>>>>>>>>>>>>>>>>>>;-@X ......   .oo@@@######@@ooX.   ....   o-;>>>>>>>>>>>>>>>>>>>>>>>>>>>>>>>>",
">>>>>>>>>>>>>>>>>>>>>>>>>>>>>;=o   ... .Xo@#==-================##oX. ..... .#->>>>>>>>>>>>>>>>>>>>>>>>>>>>>>",
">>>>>>>>>>>>>>>>>>>>>>>>>>>>=o   .   Xo#=-===@@@o@=@X  .=#o@@##===-#@o   .   o#;>>>>>>>>>>>>>>>>>>>>>>>>>>>>",
">>>>>>>>>>>>>>>>>>>>>>>>>;-X      X@#=-=#@XX     X=@ . X=@      X@#====@X. ..  X#;>>>>>>>>>>>>>>>>>>>>>>>>>>",
">>>>>>>>>>>>>>>>>>>>>>>>;@. .   X@=====X.  X.    X=@ ..X-@    ...   @====#o   . .o->>>>>>>>>>>>>>>>>>>>>>>>>",
">>>>>>>>>>>>>>>>>>>>>>;-.  .  X#===oX=# .......X X=# . X=@ ........ @=oo#==#o.... X#;>>>>>>>>>>>>>>>>>>>>>>>",
">>>>>>>>>>>>>>>>>>>>>;@     X@==#o   ##X.... ....o=@ ..o=@ X.....X. @=XX.o#==#X. .  o->>>>>>>>>>>>>>>>>>>>>>",
">>>>>>>>>>>>>>>>>>>>-X    .o===o.... #=..........X=# . o=@ . ...... #=X... o#==@. .. X#>>>>>>>>>>>>>>>>>>>>>",
">>>>>>>>>>>>>>>>>>;#X... X#==o. .... #= .........X=#  .o=@ X ..X..X #=X....  o#==o...  #;>>>>>>>>>>>>>>>>>>>",
">>>>>>>>>>>>>>>>>;#X..  o==#X........#= ..X...X...=#  .o=o . X...X. #= .....  X@==@X .. o;>>>>>>>>>>>>>>>>>>",
">>>>>>>>>>>>>>>>;@ .. X#==o  ....... #= .X.......X=#   o=@..X ..... #=  ......  X#==o .. o->>>>>>>>>>>>>>>>>",
">>>>>>>>>>>>>>>;@  . o#-#X X.X.......@=X.....X...X=#  .@=@ .. X.X.. #=  ..X.......@==o  . o->>>>>>>>>>>>>>>>",
">>>>>>>>>>>>>>;@   .o==@ .X..........#=...........=# . o=o  XX .... =#  X....X.... o==@. . o->>>>>>>>>>>>>>>",
">>>>>>>>>>>>>;@    o==o ..........X. @=X..........=# . @=o.X   .X.. #= X..X......X. X#=@... o->>>>>>>>>>>>>>",
">>>>>>>>>>>>;#    o==o .X X.....X... #=X....X....X=# . @=oX. XX.... #= .........X..X.o#=#  . o;>>>>>>>>>>>>>",
">>>>>>>>>>>>#    o==o .....X...X.... @=X..........=# . o=oX..XX .X. =#. ......X...... .#=# .  @;>>>>>>>>>>>>",
">>>>>>>>>>>=  . o==X  ....X...X..... #=X.........X=# . @=o .X   XX  #=X....X.......... X#=@  . @>>>>>>>>>>>>",
">>>>>>>>>>-X   o==X ....... ... . .. #=..........X=#   o=@ .  .X .. #=   ... ...........X#=@.X  #>>>>>>>>>>>",
">>>>>>>>>;o.. o#=o ...XXXXXXXXXXXXXXX#=.XXXXXXXXXX=@.XX@=+XXXXXXXXXX#=.XXXXXXXXXXXXXXX.. X==o  .X->>>>>>>>>>",
">>>>>>>>>@ . .#=@ ...X+%%%%%%%%%%%%%%%%%%%%%%%%%%%%%%%%%%%$%%%%%%%%%%%%%%%%%%%%%%%%%%X...XX==X.. @;>>>>>>>>>",
">>>>>>>>-  ..#=#  ...X$%%%%%%%%%%%%%%%%%%%%%%%%%%%%%%%%%%%%%%%%%%%%%%%%%%%%%%%%%%%%%%XX... o=#X.  @>>>>>>>>>",
">>>>>>>;o . o=#X  ...X+%%%%%%%%%%%%%%%%%%%%%%%%%%%%%%%%%%%%%%%%%%%%%%%%%%%%%%%%%%%%%%XX.... @=@.. .->>>>>>>>",
">>>>>>>@  .X==X  ....X$%%%%%%%%%%%%%%%%%%%%%%%%%%%%%%%%%%%%%%%%%%%%%%%%%%%%%%%%%%%%%%XX .X...#=@ X o;>>>>>>>",
">>>>>>;  . @=@ ......X+++++++++%%%%%%%%%%%%%%++++%%+++++$%++++$%%%%%%%%%%%%%$++++++++XX......X==  ..#>>>>>>>",
">>>>>;@   o=#X .....X.     .. .$%%%%%%%%%%%%+   .#-.... #=O . +%%%%%%%%%%%%%X  .......X .X... @=@.. X;>>>>>>",
">>>>>-.  .==X X .......  .X. ..$%%%%%%%%%%%%$. ..=# ..  @=o . +%%%%%%%%%%%%%XX. ...............#=X.. #>>>>>>",
">>>>;o.. @=@ X ................$%%%%%%%%%%%%$ ..X=@ ... o=@ ..+%%%%%%%%%%%%%X. ................o=#X. o;>>>>>",
">>>>-....=#X  X.....X..........$%%%%%%%%%%%%$ . o=@ ....o=#  .+$%%%%%%%%%%%%XX............X.....#=o.. #>>>>>",
">>>>@ X o=@.X X .X.X...X..X...X$%%%%%%%%%%%%$ . @=o . .. =#  .+%%%%%%%%%%%%%XX..........XX....X.X=#   X;>>>>",
">>>-X .X==X....X...............+%%%%%%$%%%%%$  .#=X......#=X X+$%%%%%%%%%%%%XX.. X..X...........X#=o X =>>>>",
">>>#.. o=@ ...X................$%%%%$%%%%%%%$  X=# ...X..@=o .+$%%%%%%%%%%%%XX..XX.X............ o=# . o;>>>",
">>;o . ==X  ...........X.X..X..+%%%%%%%%%%%%$  o-@ ..X...X=@ .+$%%%%%%%%%%%%XX.. ......XX......X..#=X X ;>>>",
">>-   X=@  ..........X.......X@$%%%%%%%%%%%%$  #=X  ......=#X.+$%%%%%%$%%%%$+o    ............... o=@ . #>>>",
">>@ ..@-@XXX.X. .. ....Xoo@#=-=%%%%%%%%%%%%%$  =#XX..X....@-o +$%%%%%%%%%%%%===#@ooX..........XXXXo== . X;>>",
">;X. X===================-==#@o$%%%%%%%%%%%%$ X=# ........o=@ +%%%%%%%%%%%%%@@#======================X ..->>",
">-.. o=#@#@##############O@X.  $%#$%%%%%%%%%$ @=o  ........== +$%%%%%%%%%%%%X  XXo+############@#@@#=@ X #>>",
";#.. @=X           .&*******&O.$$*&%%%%#&OOOO&&&O&OOO&OOOO.@=o+%%%%%%%%#OOOOOOOOOOO&OOOO&O&O&OOO  ..=#X  o>>",
";@ ..#=X.....   ..O****&OOO&*&O+@*&%%%%@******&&***********&##+$%%%%%%%@*********************&*O  . @=X..X;>",
"-o ..=# .......XO****&     X.&*&**&%%%%%$$#&*****&o..O.O&****&@%%%%%%%%$$$%&*****&.X.. ..OO****& .. @=@ . ->",
"-X..o-@ ......XO*****... .....&***&%%%%%%%%#**&**o... X.XOO****#%%%%%%%%%%%#*****O .X..... .&**&  ..X=#   #>",
"#.. @=o .....XO&*&*&.....X....OO**&%%%%%%%%@*****o....... O*****@%%%%%%%%%%#**&**o.X......X.O&*O ... =# . #>",
"# . #=XX....XX*****O .........X@**&%%%%%%%%@*****O.........O&***&#%%%%%%%%%#*****OX....X.....O**.... #=   o>",
"@   #= ......&**&**.X..........$O*&%%%%%%%%#*****oX.........&****@%%%%%%%%%#*****OX.X .X.X...O*& ... #=X..o>",
"o  .=#  ...XX**&**& ...........$$*&%%%%%%%%&*****O........X.O*****#%%%%%%%%#***&*oX.. X.&O ...*& ... @=o .X>",
"X..o=@  X..XO*****O ...X.....  $$**%%%%%%%%#*****o.X.....X. O***&*&%%%%%%$%@**&**O ...XO*O...X**X ...o=@ .X>",
"X. X=@   . .&*****O X..  ..Xoo#$%&*%%%%%%%%#*****O......X..X.**&***$%%%%%%%#*****O.X  .O*O... &O  .  o=@  .>",
"X. o=#@@@@oo****&*OXooo@@#=====%%#@%%%%%%%%#*****o.......X...*&****#%%%%%%%#*****@#o+oo&*Ooooooo@o@@@#=@  X>",
".. @========******========##@oo$%%%%%%%%%%%#*****O .....X.X..******@%%%%%%%#**&**#-==-&**&=============# X >",
".. o=@XooooO***&**@@+@@ooX   ..$%%%%%%%%%%%@*****o ..........&**&**O%%%%%%%@**&**&OO&&***O#@@o@@ooooXo=#.. >",
".. @-o    Xo***&**.       .... $%%%%%%%%%%%#*****O ..........&*****&%%%%%%%#********&****OX.. X  X....=#  .>",
"...@=X...X.O******....  X.X ...$%%%%%%%%%%%&*****O .....X....&**&**O%%%%%%%#**&*&O..O&***&X...   ....X=#  X>",
".. @=o  .  .***&**..       .X..$%%%%%%%%%%%#*****.........X.X&*****O%%%%%%%#**&**O   .O**O           X## ..>",
".. o=@o@@#@@******#####@@oXX. .$%%%%%%%%%%%&*****O...X.....X.****&*@%%%%%%%#*****O+@###&*&=####@#@@@@@=#  .>",
"...o========******#--=======##@$%%$$%%%%%%%#*****O......X....*&*&**#%%%%%%%#**&**#=====@*&=============#  X>",
"X..o=#o@oXXX&***&*O.  .Xo@##===%%$&#%%%%%%%&*****o ........XX******$%%%%%%%#*****@oo...o*&XX . XXXooX+=@ X >",
"X..X=@.  .X.O*****&......     o$%#*@%%%%%%%#*****O .........O**&**O%%%%%%%%#**&**O  ... &OXX .X X X.Xo=@  .>",
"o. X=# .X .XX***&*&.......   .X$%@*#%%%%%%%&*****o .....X..XO&****#%%%%%%%%#*&***.  ......X..X . XX  o=@ XX>",
"o ..=#..X X .O*****OX.......X. $%**%%%%%%%%#*****O .........&&***&%%%%%%%%%#*****O .....X.........   @=o  X>",
"@ ..#=X... XX.**&**O .X........$@*#%%%%%%%%O*****o.....XX.XO*&***#%%%%%%%%%#*****O.................X #=XX X>",
"# . #=X  .X  .O&****OX .......X@*&%%%%%%%%%#*****o ....X..X*****#%%%%%%%%%%#**&**. ................. == X @>",
"=   o=o .X......****&..X ..X..O*&$%%%%%%%%%@*****O ...X..O*****#%%%%%%%%%%%#****&O.X...........X.....=@   #>",
"- ..o=@... ..XX.O*****O....XO&*&$%%%%%%%$%#******OX.XX.O&****&#%%%%%%%%$%$#&*****&....X..X....X..XX.o=@   =>",
";o . == .X.X......O*****&&&***O$%%%%%%%@******************&O#=#%%%%%%%%@***&**********X.....X...... @=o.. ->",
";@  .#=  . .........O&*****&O..$%%%%%%%#&&&&&&&&&O&&&&&&OO.o-@+%%%%%%%%#O&&&O&&OO&O&&O .....X.......#=XX X;>",
";-   @=o X.XXXXXXXXXXXX.X... ..$%%%%%%%%%%%%%X==XX..       #-X+%%%%%%%%%%%%%$X.X..  XXXXXXXXXXX.X..o=@ X @>>",
">-  .X==##==============##@oo .+%%%%%%%%%%%%%X+=@. .X..X.XX=# +%%%%%%%%%%%%%+ Xo+@#=========-====##==oX  #>>",
">;o...==#=###@@##@######==-===#$%%%%%%%%%%%%%X.-# .X..... o=@ +$%%%%%%%%%%%%##=====##@@#@#@#@#####=-=XX X->>",
">># ..o=@                .oo##=%%%%%%%%%%%%%%X == . .X .. #=X +%%%%%%%%%%%%%==@@oX    .           X=# . o;>>",
">>-.  .=#  .  ... ..     . ...X$%%%%%%%%%%%%$. o=o .X .X X=#X.+$%%%%%%%%%%%%+ .  X.....   .....   @=o . #>>>",
">>;@ ..#=o ..X X.X.....XX......+%%%%%%%%%%%%$..o=@ .... .o=@  +%%%%%%%%%%%%%X............XX ......=#XX o;>>>",
">>>#.. o=# .X .......X . ......$%%%%%%%%%%%%$..X=#.X ....@=o..+$%%%%%%%%%%%%XX............ X.... o=@X. @;>>>",
">>>;o  .#=X ............X......+%%%%%%%%%%%%$...#=X......#=X..+%%%%%%%%%%%%$X....................==X.. ->>>>",
">>>># ..o=# ......X............$%%%%%%%%%%$%$ . @=o ....X=# ..+$%%%%%%%%%$%%+ .......X......... o=@ . o;>>>>",
">>>>;  ..#=XX.X..X.............$%%%%%%%%%%%%$ ..o-@ ....X=# ..+%%%%%%%%%%%%%X  .....X....XX.....==X...=>>>>>",
">>>>>@ . o=# ..........X.X.....$%%%%%%%%%%%%$....=@ ....o=@   +$%%%%%%%%$%%%X .....X....X...X X@=@.. o;>>>>>",
">>>>>-o  .#=o .......... ......$%%%%%%%%%%%%+....=#X .. @=o  .+%%%%%%%%%%%%%X ............... X=#X . =>>>>>>",
">>>>>># ..X==X........XXXXXXXXX$%%%%%%%%%%$%$XXX.#=XXXXX#=XXXX+%%%%%%%%%%%%%XXXXXXXXXX....... #=oX. o>>>>>>>",
">>>>>>;  . @=@ ...X..X+$$%$$$$$%%%$%%%%%%%%%%$$$$$%$$$$$%%$$%$%%%%%%%%%%%%%%$%$$$%$$$X...X.. o=#X. .=>>>>>>>",
">>>>>>>=..  #=@ .....X$%%%%%%%%%%%%%%%%%%%%%%%%%%%%%%%%%%%%%%%%%%%%%%%%%%%%%%%%%%%%%%XX.....o==o . #;>>>>>>>",
">>>>>>>;@  .o== .....X+%%%%%%%%%%%$%%%%%%%%%%%%%%%%%%%%%%%%%%%%%%%$%%%%%%%$%%%%%%%%%%XX.....#=o . X;>>>>>>>>",
">>>>>>>>-X . o=#. ...X$%%%%%%%%%%%%%%%%%%%%%%%%%%%%%%%%%%%%%%%%%%%%%%%%%%%%%%%%%%%%%%XX... @-@X.  ->>>>>>>>>",
">>>>>>>>>= ...@=#...XX+$$$$$$$$$$$$$$$%$+$+$$+$$$+%$$$$$%$$$$$$$$+$$$%+$$+$$$$$$$$$$$XX . o-#XX. @;>>>>>>>>>",
">>>>>>>>>;@ . X#=@ ..... ... .... . .@=XX.XX..X. X=#.. o-o.   .  .. #=.X .X  .  .. ..... o==XX. o;>>>>>>>>>>",
">>>>>>>>>>;o . .#=@ .............. . #=...........=#  .@=o ........ #=   .... .. .......X==X....->>>>>>>>>>>",
">>>>>>>>>>>-....o==@ ..X............ @=X..........=# . o=o......... ==   ............. X==oX.. #>>>>>>>>>>>>",
">>>>>>>>>>>>=o . X#=@  ........X.....#=X..........=# . @-o......... ##  ..............X==o..  #;>>>>>>>>>>>>",
">>>>>>>>>>>>>=   .o==@...............@=X..........=# . @=o.X ...X.. #= ..............o==@    @;>>>>>>>>>>>>>",
">>>>>>>>>>>>>>#  . X#=# ...........X #=X.......X..=# . @=o. ....... == ....XX.......o==o  . @;>>>>>>>>>>>>>>",
">>>>>>>>>>>>>>;#... X#=#X......X.....#=X.....X....=# . @=o ...X.X...#= ........X..X@-=o    @;>>>>>>>>>>>>>>>",
">>>>>>>>>>>>>>>;#. ...@==o ..X.X...X #=  .........=# ..o=o X....... #=  ........ X#-#o .  @;>>>>>>>>>>>>>>>>",
">>>>>>>>>>>>>>>>>=.....@==#..........#= ....X....o=# . o=@  ....... #=  ....X...@=-@X.   #;>>>>>>>>>>>>>>>>>",
">>>>>>>>>>>>>>>>>>=  .. X#==o .......##...........=@   @=o X..X.X...#=........o#==oX X .#;>>>>>>>>>>>>>>>>>>",
">>>>>>>>>>>>>>>>>>>-@  . .@==#X....X.==........X.o=@...o=@ .........@=......X@==#. .. X=>>>>>>>>>>>>>>>>>>>>",
">>>>>>>>>>>>>>>>>>>>;@  .. X#==#o ...## ....X....X=# ..o=@ .........@=X....@===o  .  o;>>>>>>>>>>>>>>>>>>>>>",
">>>>>>>>>>>>>>>>>>>>>;-. ..  o#==@o .=#..........o=@ ..o=@  ....X...@=o X@===@     .@;>>>>>>>>>>>>>>>>>>>>>>",
">>>>>>>>>>>>>>>>>>>>>>>-@. ..  o#==#@=@........X.o=@...o=@  ....... o=@#===o      o->>>>>>>>>>>>>>>>>>>>>>>>",
">>>>>>>>>>>>>>>>>>>>>>>>;-   ...Xo#===#o.. ...X..o=@...X=@ X..... .o#===#@. .   .#;>>>>>>>>>>>>>>>>>>>>>>>>>",
">>>>>>>>>>>>>>>>>>>>>>>>>>;#X ...  .@#====@ooX...o=o.. X=@   XXo@#====@o.  ...X@;>>>>>>>>>>>>>>>>>>>>>>>>>>>",
">>>>>>>>>>>>>>>>>>>>>>>>>>>>-#.  ..   o@#=====##@@=@ooXo=#@##=====#@o    .   @-;>>>>>>>>>>>>>>>>>>>>>>>>>>>>",
">>>>>>>>>>>>>>>>>>>>>>>>>>>>>>;#X  .X.   .X@##====-=====-====#@@oX......  .#-;>>>>>>>>>>>>>>>>>>>>>>>>>>>>>>",
">>>>>>>>>>>>>>>>>>>>>>>>>>>>>>>>;=@    X...    .ooo@@@@@@ooX.    X...   o#;;>>>>>>>>>>>>>>>>>>>>>>>>>>>>>>>>",
">>>>>>>>>>>>>>>>>>>>>>>>>>>>>>>>>>;-#o.    .. .   .  .    X.X  . .   X#-;>>>>>>>>>>>>>>>>>>>>>>>>>>>>>>>>>>>",
">>>>>>>>>>>>>>>>>>>>>>>>>>>>>>>>>>>>>;;=@oX    .. .X.......    ..o@#;;>>>>>>>>>>>>>>>>>>>>>>>>>>>>>>>>>>>>>>",
">>>>>>>>>>>>>>>>>>>>>>>>>>>>>>>>>>>>>>>;;;-=#@oooXX.....XXXoo@##--;;>>>>>>>>>>>>>>>>>>>>>>>>>>>>>>>>>>>>>>>>"
};
