/* XPM */
static char *legend[] = {
/* width height num_colors chars_per_pixel */
"   116    76        5            1",
/* colors */
". c #000000",
"# c #8e0000",
"a c #ffffff",
"b c #ffff00",
"c c #008e00",
/* pixels */
"aaaaaaa######################################################################################################aaaaaaa",
"aaaa###aaaaaaaaaaaaaaaaaaaaaaaaaaaaaaaaaaaaaaaaaaaaaaaaaaaaaaaaaaaaaaaaaaaaaaaaaaaaaaaaaaaaaaaaaaaaaaaaaaaaaa###aaaa",
"aa##aaaaaaaaaaaaaaaaaaaaaaaaaaaaaaaaaaaaaaaaaaaaaaaaaaaaaaaaaaaaaaaaaaaaaaaaaaaaaaaaaaaaaaaaaaaaaaaaaaaaaaaaaaaa#aaa",
"a#aaaaaaaaaaaaaaaaaaaaaaaaaaaaaaaaaaaaaaaaaaaaaaaaaaaaaaaaaaaaaaaaaaaaaaaaaaaaaaaaaaaaaaaaaaaaaaaaaaaaaaaaaaaaaaa#aa",
"a#aaaaaaaaaaaaaaaaaaaaaaaaaaaaaaaaaaaaaaaaaaaaaaaaaaaaaaaaaaaaaaaaaaaaaaaaaaaaaaaaaaaaaaaaaaaaaaaaaaaaaaaaaaaaaaaa#a",
"#aaaaaaaaaaaaaaaaaaaaaaaaaaaaaaaaaaaaaaaaaaaaaaaaaaaaaaaaaaaaaaaaaaaaaaaaaaaaaaaaaaaaaaaaaaaaaaaaaaaaaaaaaaaaaaaaa#a",
"#aaaaaaaaaacccaaaaaaaaaaaaaaaaaaaaaaaaaaaaaaaaaaaaaaaaaaaaaaaaaaaaaaaaaaaaaaaaaaaaaaaaaaaaaaaaaaaaaaaaaaaaaaaaaaaa#a",
"#aaaaaaaacccccccaaaaaaaaaaaaaaaaaaaaaaaaaaaaaaaaaaaaaaaaaaaaaaaaaaaaaaaaaaaaaaaaaaaaaaaaaaaaaaaaaaaaaaaaaaaaaaaaaaa#",
"#aaaaaaaccccccccccaaaaaaaaaaaaaaaaaaaaaaaaaaaaaaaaaaaaaaaaaaaaaaaaaaaaaaaaaaaaaaaaaaaaaaaaaaaaaaaaaaaaaaaaaaaaaaaaa#",
"#aaaaaacccccccccccaaaaaaaaaaaaaaaaaaaaaaaaaaaaaaaaaaaaaaaaaaaaaaaaaaaaaaaaaaaaaaaaaaaaaaaaaaaaaaaaaaaaaaaaaaaaaaaaa#",
"#aaaaacccccccccccccaaaaaaaaaaaaaa..........aaaaaaaaaaaaaaaaaaaaaaaaaaaaaaaaaaaaaaaaaaaaaaaaaaaaaaaaaaaaaaaaaaaaaaaa#",
"#aaaaacccccccccccccaaaaaaaaaaaaaaaa...aaa..aaaaaaaaaaaaaaaaaaaaaaaaaaa.aaaaaaaaaaaaaaaaaaaaaaaaaaaaaaaaaaaaaaaaaaaa#",
"#aaaaaccccccccccccccaaaaaaaaaaaaaaa...aaaa.aaaaaaaaaaaaaaaaaaaaaaaaaa..aaaaaaaaaaaaaaaaaaaaaaaaaaaaaaaaaaaaaaaaaaaa#",
"#aaaacccccccccccccccaaaaaaaaaaaaaaa...aa.aaaa...a...aa...aa...a....a.....a....aa..aaaaaaaaaaaaaaaaaaaaaaaaaaaaaaaaa#",
"#aaaaaccccccccccccccaaaaaaaaaaaaaaa......aaaaa...aa...aa..aa...aa..aa..aaaa...aa.aaaaaaaaaaaaaaaaaaaaaaaaaaaaaaaaaa#",
"#aaaaacccccccccccccaaaaaaaaaaaaaaaa......aaaaa..aaa..aaa..aa..aaaa..a..aaaaa..aa.aaaaaaaaaaaaaaaaaaaaaaaaaaaaaaaaaa#",
"#aaaaacccccccccccccaaaaaaaaaaaaaaaa...aa.aaaaa..aaa..aaa..aa..aaaa..a..aaaaa...a.aaaaaaaaaaaaaaaaaaaaaaaaaaaaaaaaaa#",
"#aaaaaacccccccccccaaaaaaaaaaaaaaaaa...aa.aaaaa..aaa..aaa..aa..aaaa..a..aaaaa....aaaaaaaaaaaaaaaaaaaaaaaaaaaaaaaaaaa#",
"#aaaaaaacccccccccaaaaaaaaaaaaaaaaaa...aaaaa.aa..aaa..aaa..aa..aaaa..a..aaaaaa...aaaaaaaaaaaaaaaaaaaaaaaaaaaaaaaaaaa#",
"#aaaaaaaacccccccaaaaaaaaaaaaaaaaaaa...aaaa..aa..aaa..aaa..aa..aaa..aa..aaaaaa..aaaaaaaaaaaaaaaaaaaaaaaaaaaaaaaaaaaa#",
"#aaaaaaaaaaacaaaaaaaaaaaaaaaaaaaaa.........aa....a....a....a......aaa....aaaaa.aaaaaaaaaaaaaaaaaaaaaaaaaaaaaaaaaaaa#",
"#aaaaaaaaaaaaaaaaaaaaaaaaaaaaaaaaaaaaaaaaaaaaaaaaaaaaaaaaaaa..aaaaaaaaaaaaaaaa.aaaaaaaaaaaaaaaaaaaaaaaaaaaaaaaaaaaa#",
"#aaaaaaaaaaaaaaaaaaaaaaaaaaaaaaaaaaaaaaaaaaaaaaaaaaaaaaaaaaa..aaaaaaaaaaaa..a.aaaaaaaaaaaaaaaaaaaaaaaaaaaaaaaaaaaaa#",
"#aaaaaaaaaaaaaaaaaaaaaaaaaaaaaaaaaaaaaaaaaaaaaaaaaaaaaaaaaaa..aaaaaaaaaaaa....aaaaaaaaaaaaaaaaaaaaaaaaaaaaaaaaaaaaa#",
"#aaaaaaaaaaaaaaaaaaaaaaaaaaaaaaaaaaaaaaaaaaaaaaaaaaaaaaaaaa....aaaaaaaaaaaa..aaaaaaaaaaaaaaaaaaaaaaaaaaaaaaaaaaaaaa#",
"#aaaaaaaaaaaaaaaaaaaaaaaaaaaaaaaaaaaaaaaaaaaaaaaaaaaaaaaaaaaaaaaaaaaaaaaaaaaaaaaaaaaaaaaaaaaaaaaaaaaaaaaaaaaaaaaaaa#",
"#aaaaaaaaaaaaaaaaaaaaaaaaaaaaaaaaaaaaaaaaaaaaaaaaaaaaaaaaaaaaaaaaaaaaaaaaaaaaaaaaaaaaaaaaaaaaaaaaaaaaaaaaaaaaaaaaaa#",
"#aaaaaaaaaaaaaaaaaaaaaaaaaaaaaaaaaaaaaaaaaaaaaaaaaaaaaaaaaaaaaaaaaaaaaaaaaaaaaaaaaaaaaaaaaaaaaaaaaaaaaaaaaaaaaaaaaa#",
"#aaaaaaaaaaaaaaaaaaaaaaaaaaaaaaaaaaaaaaaaaaaaaaaaaaaaaaaaaaaaaaaaaaaaaaaaaaaaaaaaaaaaaaaaaaaaaaaaaaaaaaaaaaaaaaaaaa#",
"#aaaaaaaaaaaaaaaaaaaaaaaaaaaaaaaaaaaaaaaaaaaaaaaaaaaaaaaaaaaaaaaaaaaaaaaaaaaaaaaaaaaaaaaaaaaaaaaaaaaaaaaaaaaaaaaaaa#",
"#aaaaaaaaaaaaaaaaaaaaaaaaaaaaaaaaaaaaaaaaaaaaaaaaaaaaaaaaaaaaaaaaaaaaaaaaaaaaaaaaaaaaaaaaaaaaaaaaaaaaaaaaaaaaaaaaaa#",
"#aaaaaaaaaabbbaaaaaaaaaaaaaaaaaaaaaaaaaaaaaaaaaaaaaaaaaaaaaaaaaaaaaaaaaaaaaaaaaaaaaaaaaaaaaaaaaaaaaaaaaaaaaaaaaaaaa#",
"#aaaaaaaabbbbbbbaaaaaaaaaaaaaaaaaaaaaaaaaaaaaaaaaaaaaaaaaaaaaaaaaaaaaaaaaaaaaaaaaaaaaaaaaaaaaaaaaaaaaaaaaaaaaaaaaaa#",
"#aaaaaaabbbbbbbbbbaaaaaaaaaaaaaaaaaaaaaaaaaaaaaaaaaaaaaaaaaaaaaaaaaaaaaaaaaaaaaaaaaaaaaaaaaaaaaaaaaaaaaaaaaaaaaaaaa#",
"#aaaaaabbbbbbbbbbbaaaaaaaaaaaaaaaaaaaaaaaaaaaaaaaaaaaaaaaaaaaaaaaaaaaaaaaaaaaaaaaaaaaaaaaaaaaaaaaaaaaaaaaaaaaaaaaaa#",
"#aaaaabbbbbbbbbbbbbaaaaaaaaaaaaaaaa...aaaa...aaaaaaaaaaa..aaaa....aaaa..........aaaaaaaaaaa..aa..aaaaaaaaaaaaaaaaaa#",
"#aaaaabbbbbbbbbbbbbaaaaaaaaaaaaaaaa...aaaa...aaaaaaaaaaa..aaa..a...aaaaa...aaaa.aaaaaaaaaaa..aa..aaaaaaaaaaaaaaaaaa#",
"#aaaaabbbbbbbbbbbbbbaaaaaaaaaaaaaaa...aaaa...aaaaaaaaaaa..aaa..aaaaaaaaa...aaaa.aaaaaaaaaaa..aa..aaaaaaaaaaaaaaaaaa#",
"#aaaabbbbbbbbbbbbbbbaaaaaaaaaaaaaaa...aaaa...aaaa....aaa..aa.....aaaaaaa...aa.aa...aa...aaa..aa..aaaaaaaaaaaaaaaaaa#",
"#aaaaabbbbbbbbbbbbbbaaaaaaaaaaaaaaa...aaaa...aaa..aa..aa..aaa..aaaaaaaaa......aaa..aaa..aaa..aa..aaaaaaaaaaaaaaaaaa#",
"#aaaaabbbbbbbbbbbbbaaaaaaaaaaaaaaaa..........aaa..aa..aa..aaa..aaaaaaaaa......aaa..aaa..aaa..aa..aaaaaaaaaaaaaaaaaa#",
"#aaaaabbbbbbbbbbbbbaaaaaaaaaaaaaaaa...aaaa...aaaaaa...aa..aaa..aaaaaaaaa...aa.aaa..aaa..aaa..aa..aaaaaaaaaaaaaaaaaa#",
"#aaaaaabbbbbbbbbbbaaaaaaaaaaaaaaaaa...aaaa...aaaa..a..aa..aaa..aaaaaaaaa...aa.aaa..aaa..aaa..aa..aaaaaaaaaaaaaaaaaa#",
"#aaaaaaabbbbbbbbbaaaaaaaaaaaaaaaaaa...aaaa...aaa..aa..aa..aaa..aaaaaaaaa...aaaaaa..aaa..aaa..aa..aaaaaaaaaaaaaaaaaa#",
"#aaaaaaaabbbbbbbaaaaaaaaaaaaaaaaaaa...aaaa...aaa..aa..aa..aaa..aaaaaaaaa...aaaaaa..aaa..aaa..aa..aaaaaaaaaaaaaaaaaa#",
"#aaaaaaaaaaabaaaaaaaaaaaaaaaaaaaaa.....a......aa...........a.....aaaaaa......aaaaa.......a........aaaaaaaaaaaaaaaaa#",
"#aaaaaaaaaaaaaaaaaaaaaaaaaaaaaaaaaaaaaaaaaaaaaaaaaaaaaaaaaaaaaaaaaaaaaaaaaaaaaaaaaaaaaaaaaaaaaaaaaaaaaaaaaaaaaaaaaa#",
"#aaaaaaaaaaaaaaaaaaaaaaaaaaaaaaaaaaaaaaaaaaaaaaaaaaaaaaaaaaaaaaaaaaaaaaaaaaaaaaaaaaaaaaaaaaaaaaaaaaaaaaaaaaaaaaaaaa#",
"#aaaaaaaaaaaaaaaaaaaaaaaaaaaaaaaaaaaaaaaaaaaaaaaaaaaaaaaaaaaaaaaaaaaaaaaaaaaaaaaaaaaaaaaaaaaaaaaaaaaaaaaaaaaaaaaaaa#",
"#aaaaaaaaaaaaaaaaaaaaaaaaaaaaaaaaaaaaaaaaaaaaaaaaaaaaaaaaaaaaaaaaaaaaaaaaaaaaaaaaaaaaaaaaaaaaaaaaaaaaaaaaaaaaaaaaaa#",
"#aaaaaaaaaaaaaaaaaaaaaaaaaaaaaaaaaaaaaaaaaaaaaaaaaaaaaaaaaaaaaaaaaaaaaaaaaaaaaaaaaaaaaaaaaaaaaaaaaaaaaaaaaaaaaaaaaa#",
"#aaaaaaaaaaaaaaaaaaaaaaaaaaaaaaaaaaaaaaaaaaaaaaaaaaaaaaaaaaaaaaaaaaaaaaaaaaaaaaaaaaaaaaaaaaaaaaaaaaaaaaaaaaaaaaaaaa#",
"#aaaaaaaaaaaaaaaaaaaaaaaaaaaaaaaaaaaaaaaaaaaaaaaaaaaaaaaaaaaaaaaaaaaaaaaaaaaaaaaaaaaaaaaaaaaaaaaaaaaaaaaaaaaaaaaaaa#",
"#aaaaaaaaaaaaaaaaaaaaaaaaaaaaaaaaaaaaaaaaaaaaaaaaaaaaaaaaaaaaaaaaaaaaaaaaaaaaaaaaaaaaaaaaaaaaaaaaaaaaaaaaaaaaaaaaaa#",
"#aaaaaaaaaaaaaaaaaaaaaaaaaaaaaaaaaaaaaaaaaaaaaaaaaaaaaaaaaaaaaaaaaaaaaaaaaaaaaaaaaaaaaaaaaaaaaaaaaaaaaaaaaaaaaaaaaa#",
"#aaaaaaaaaaaaaaaaaaaaaaaaaaaaaaaaaaaaaaaaaaaaaaaaaaaaaaaaaaaaaaaaaaaaaaaaaaaaaaaaaaaaaaaaaaaaaaaaaaaaaaaaaaaaaaaaaa#",
"#aaaaaaaaaa###aaaaaaaaaaaaaaaaaaaaaaaaaaaaaaaaaaaaaaaaaaaaaaaaaaaaaaaaaaaaaaaaaaaaaaaaaaaaaaaaaaaaaaaaaaaaaaaaaaaaa#",
"#aaaaaaaa#######aaaaaaaaaaaaaaaaaaaaaaaaaaaaaaaaaaaaaaaaaaaaaaaaaaaaaaaaaaaaaaaaaaaaaaaaaaaaaaaaaaaaaaaaaaaaaaaaaaa#",
"#aaaaaaa##########aaaaaaaaaaaaaaaaaaaaaaaaaaaaaaaaaaaaaaaaaaaaaaaaaaaaaaaaaaaaaaaaaaaaaaaaaaaaaaaaaaaaaaaaaaaaaaaaa#",
"#aaaaaa###########aaaaaaaaaaaaaaaaaaaaaaaaaaaaaaaaaaaaaaaaaaaaaaaaaaaaaaaaaaaaaaaaaaaaaaaaaaaaaaaaaaaaaaaaaaaaaaaaa#",
"#aaaaa#############aaaaaaaaaaaaaa..........aaaaaaaaaaa..aaa..aaaaaaaaaaaaaaaaaaaaaaaaaaaaaaaaaaaaaaaaaaaaaaaaaaaaaa#",
"#aaaaa#############aaaaaaaaaaaaaaaa...aaaa.aaaaaaaaaaa..aaa..aaaaaaaaaaaaaaaaaaaaaaaaaaaaaaaaaaaaaaaaaaaaaaaaaaaaaa#",
"#aaaaa##############aaaaaaaaaaaaaaa...aaaa.aaaaaaaaaaa..aaa..aaaaaaaaaaaaaaaaaaaaaaaaaaaaaaaaaaaaaaaaaaaaaaaaaaaaaa#",
"#aaaa###############aaaaaaaaaaaaaaa...aa.aaa...aa...aa..aaa..aaaaaaaaaaaaaaaaaaaaaaaaaaaaaaaaaaaaaaaaaaaaaaaaaaaaaa#",
"#aaaaa##############aaaaaaaaaaaaaaa......aaaa..aaa..aa..aaa..aaaaaaaaaaaaaaaaaaaaaaaaaaaaaaaaaaaaaaaaaaaaaaaaaaaaaa#",
"#aaaaa#############aaaaaaaaaaaaaaaa......aaaa..aaa..aa..aaa..aaaaaaaaaaaaaaaaaaaaaaaaaaaaaaaaaaaaaaaaaaaaaaaaaaaaaa#",
"#aaaaa#############aaaaaaaaaaaaaaaa...aa.aaaa..aaa..aa..aaa..aaaaaaaaaaaaaaaaaaaaaaaaaaaaaaaaaaaaaaaaaaaaaaaaaaaaaa#",
"#aaaaaa###########aaaaaaaaaaaaaaaaa...aa.aaaa..aaa..aa..aaa..aaaaaaaaaaaaaaaaaaaaaaaaaaaaaaaaaaaaaaaaaaaaaaaaaaaaaa#",
"#aaaaaaa#########aaaaaaaaaaaaaaaaaa...aaaaaaa..aaa..aa..aaa..aaaaaaaaaaaaaaaaaaaaaaaaaaaaaaaaaaaaaaaaaaaaaaaaaaaaaa#",
"#aaaaaaaa#######aaaaaaaaaaaaaaaaaaa...aaaaaaa..aaa..aa..aaa..aaaaaaaaaaaaaaaaaaaaaaaaaaaaaaaaaaaaaaaaaaaaaaaaaaaaa#a",
"#aaaaaaaaaaa#aaaaaaaaaaaaaaaaaaaaa......aaaaaa...........a....aaaaaaaaaaaaaaaaaaaaaaaaaaaaaaaaaaaaaaaaaaaaaaaaaaaa#a",
"#aaaaaaaaaaaaaaaaaaaaaaaaaaaaaaaaaaaaaaaaaaaaaaaaaaaaaaaaaaaaaaaaaaaaaaaaaaaaaaaaaaaaaaaaaaaaaaaaaaaaaaaaaaaaaaaaa#a",
"a#aaaaaaaaaaaaaaaaaaaaaaaaaaaaaaaaaaaaaaaaaaaaaaaaaaaaaaaaaaaaaaaaaaaaaaaaaaaaaaaaaaaaaaaaaaaaaaaaaaaaaaaaaaaaaaa#aa",
"a#aaaaaaaaaaaaaaaaaaaaaaaaaaaaaaaaaaaaaaaaaaaaaaaaaaaaaaaaaaaaaaaaaaaaaaaaaaaaaaaaaaaaaaaaaaaaaaaaaaaaaaaaaaaaaaa#aa",
"aa##aaaaaaaaaaaaaaaaaaaaaaaaaaaaaaaaaaaaaaaaaaaaaaaaaaaaaaaaaaaaaaaaaaaaaaaaaaaaaaaaaaaaaaaaaaaaaaaaaaaaaaaaaaa##aaa",
"aaaa###########################################################################################################aaaaa"
};
