/* XPM */
static char * white_ball_xpm[] = {
"10 10 9 1",
" 	c None",
".	c #000000",
"+	c #002800",
"@	c #848484",
"#	c #F7F7F7",
"$	c #001E00",
"%	c #001B00",
"&	c #494949",
"*	c #001800",
"   ....   ",
" .+@##@$. ",
" +######% ",
".@######@.",
".########.",
".########.",
".@######&.",
" $######* ",
" .%&##&*. ",
"   ....   "};
